<svg xmlns="http://www.w3.org/2000/svg" width="330" height="199" viewBox="0 0 330 199" version="1.1"><path d="M 5.250 7.662 C 4.275 8.056, 4 18.464, 4 54.976 C 4 96.738, 4.171 101.851, 5.582 102.393 C 6.452 102.727, 15.789 102.984, 26.332 102.965 C 52.714 102.917, 63.226 100.907, 70.892 94.443 C 79.790 86.941, 80.549 70.674, 72.442 61.203 C 70.662 59.123, 67.405 56.546, 65.204 55.475 L 61.203 53.529 64.810 51.506 C 66.794 50.393, 69.786 47.534, 71.458 45.152 C 74.210 41.233, 74.499 40.089, 74.487 33.160 C 74.475 26.575, 74.081 24.843, 71.682 20.819 C 68.153 14.900, 60.700 10.018, 52.600 8.321 C 46.676 7.079, 8.028 6.541, 5.250 7.662 M 86 10 C 83.676 12.324, 83.589 13.004, 85.171 16.477 C 87.365 21.291, 94.305 20.617, 95.598 15.464 C 97.075 9.579, 90.286 5.714, 86 10 M 13 32.589 L 13 50.178 33.250 49.839 C 52.126 49.523, 53.825 49.340, 58.283 47.145 C 71.639 40.568, 69.098 21.629, 54.178 16.545 C 50.738 15.373, 45.222 15, 31.322 15 L 13 15 13 32.589 M 114.750 15.672 C 113.241 16.081, 113 17.443, 113 25.573 L 113 35 106 35 L 99 35 99 38.500 L 99 42 106 42 L 113 42 113 64.385 C 113 91.086, 113.900 95.466, 120.346 100.135 C 123.765 102.612, 125.210 103, 131.028 103 C 138.120 103, 145 100.872, 145 98.678 C 145 97.965, 144.394 96.553, 143.653 95.540 C 142.485 93.943, 141.867 93.851, 139.004 94.849 C 133.378 96.810, 127.464 96.303, 124.306 93.588 L 121.500 91.176 121.200 66.588 L 120.901 42 131.950 42 L 143 42 143 38.500 L 143 35 132.036 35 L 121.072 35 120.786 25.250 C 120.524 16.322, 120.331 15.487, 118.500 15.348 C 117.400 15.265, 115.713 15.411, 114.750 15.672 M 300.250 15.644 C 299.376 16.010, 299 18.996, 299 25.583 L 299 35 292.059 35 C 284.642 35, 283.459 35.706, 284.425 39.557 C 285.001 41.854, 285.453 42, 291.971 42 L 298.904 42 299.202 67.429 C 299.534 95.728, 299.519 95.665, 306.990 100.750 C 313.024 104.857, 330.025 103.046, 329.985 98.301 C 329.952 94.442, 328.464 93.544, 324.213 94.818 C 315.330 97.479, 307.848 94.992, 306.646 88.978 C 306.291 87.203, 306 75.921, 306 63.908 L 306 42.066 317.250 41.783 L 328.500 41.500 328.813 38.250 L 329.127 35 317.600 35 L 306.072 35 305.786 25.250 C 305.525 16.337, 305.328 15.484, 303.500 15.310 C 302.400 15.206, 300.938 15.356, 300.250 15.644 M 170.053 35.971 C 167.057 37.081, 163.119 39.430, 161.303 41.191 L 158 44.392 158 39.696 L 158 35 153.987 35 L 149.973 35 150.237 68.750 L 150.500 102.500 154 102.500 L 157.500 102.500 158.018 80 C 158.569 56.074, 158.992 53.786, 163.814 48.624 C 169.475 42.562, 180.517 40.277, 190.171 43.169 C 194.955 44.603, 200.486 50.488, 201.928 55.679 C 202.522 57.817, 202.991 68.850, 202.994 80.731 L 203 101.962 205.498 102.589 C 210.990 103.967, 211 103.927, 211 80.006 C 211 55.087, 209.929 49.647, 203.757 43.216 C 195.712 34.832, 181.416 31.759, 170.053 35.971 M 239.061 35.969 C 231.385 38.813, 226.630 42.224, 223.015 47.479 C 217.604 55.343, 216.626 58.645, 216.643 69 C 216.656 77.214, 217.019 79.258, 219.329 84.097 C 222.789 91.347, 227.507 96.120, 234.706 99.655 C 239.959 102.234, 241.482 102.500, 251.021 102.500 C 260.841 102.500, 261.976 102.286, 268.056 99.293 C 276.045 95.360, 279.890 91.635, 278.400 89.272 C 276.082 85.597, 274.346 85.489, 270.591 88.786 C 265.597 93.171, 254.529 96.461, 247.783 95.566 C 235.964 93.998, 226.874 86.052, 224.543 75.250 L 223.841 72 254.063 72 L 284.286 72 283.728 64.250 C 283.421 59.987, 282.431 54.766, 281.528 52.647 C 279.075 46.888, 271.679 39.543, 265.714 36.941 C 258.271 33.695, 246.369 33.261, 239.061 35.969 M 86.237 68.750 L 86.500 102.500 90 102.500 L 93.500 102.500 93.763 68.750 L 94.027 35 90 35 L 85.973 35 86.237 68.750 M 244.500 41.902 C 238.036 43.623, 234.181 45.942, 230.679 50.217 C 227.516 54.076, 224 61.399, 224 64.126 C 224 64.607, 235.854 65, 250.341 65 L 276.683 65 276.019 60.750 C 274.783 52.830, 269.954 46.606, 262.746 43.642 C 258.125 41.742, 248.536 40.828, 244.500 41.902 M 13 75.998 L 13 94.199 34.250 93.762 C 56.384 93.307, 60.376 92.635, 64.845 88.611 C 73.599 80.729, 70.786 66.510, 59.363 60.900 C 54.801 58.659, 53.215 58.489, 33.750 58.154 L 13 57.798 13 75.998 M 4.457 114.252 C 4.193 114.941, 4.094 133.278, 4.238 155.002 L 4.500 194.500 8.237 194.810 L 11.974 195.119 12.237 160.310 L 12.500 125.500 27.195 147.657 C 35.278 159.844, 42.274 170.052, 42.743 170.341 C 44.178 171.228, 45.467 169.809, 50.772 161.500 C 56.329 152.796, 69.714 132.303, 72.970 127.514 L 75 124.528 75 159.764 L 75 195 78.500 195 L 82 195 82 154 L 82 113 77.750 113.033 C 73.551 113.066, 73.441 113.159, 68.593 120.783 C 63.410 128.935, 53.042 144.956, 47.258 153.750 C 45.359 156.637, 43.666 159, 43.495 159 C 43.185 159, 40.860 155.523, 22.602 127.750 L 12.905 113 8.921 113 C 6.653 113, 4.730 113.539, 4.457 114.252 M 193 154 L 193 195.127 196.250 194.813 L 199.500 194.500 199.780 181.151 L 200.059 167.802 207.309 174.651 C 225.622 191.953, 229.524 195, 233.363 195 C 235.363 195, 237 194.632, 237 194.183 C 237 193.734, 233.076 189.796, 228.281 185.433 C 223.485 181.070, 216.397 174.489, 212.531 170.809 L 205.500 164.118 215.500 154.770 C 221 149.628, 227.525 143.538, 230 141.236 L 234.500 137.050 229.883 137.025 C 225.370 137.001, 224.990 137.257, 212.883 148.489 L 200.500 159.979 200 136.739 L 199.500 113.500 196.250 113.187 L 193 112.873 193 154 M 303 128.500 L 303 137 297 137 L 291 137 291 140 L 291 143 297 143 L 303 143 303 163.184 C 303 181.652, 303.179 183.738, 305.102 187.712 C 307.383 192.423, 310.629 194.619, 316.645 195.521 C 321.951 196.316, 329.424 194.002, 329.756 191.460 C 330.189 188.139, 328.597 186.610, 326.097 187.948 C 324.911 188.583, 321.637 188.967, 318.821 188.801 C 314.568 188.551, 313.352 188.029, 311.627 185.712 C 309.726 183.157, 309.519 181.256, 309.160 162.999 L 308.768 143.075 318.634 142.788 L 328.500 142.500 328.816 139.750 L 329.133 137 319.066 137 L 309 137 309 128.500 L 309 120 306 120 L 303 120 303 128.500 M 109.803 137.342 C 100.701 139.904, 93.193 146.996, 90.159 155.899 C 88.641 160.351, 88.751 171.559, 90.356 176.047 C 92.867 183.069, 97.547 188.480, 104.174 192.023 C 109.587 194.918, 111.511 195.413, 117.500 195.453 C 123.204 195.491, 125.556 194.981, 130.204 192.699 C 133.341 191.158, 137.054 188.536, 138.454 186.872 L 141 183.847 141 189.487 L 141 195.127 144.250 194.813 L 147.500 194.500 147.765 165.750 L 148.031 137 144.515 137 L 141 137 141 142.033 L 141 147.067 137.653 143.720 C 135.813 141.879, 132.753 139.636, 130.854 138.735 C 125.990 136.427, 115.518 135.734, 109.803 137.342 M 174.380 136.895 C 169.814 137.676, 165.405 140.138, 162.772 143.375 C 161.073 145.466, 161.044 145.431, 161.022 141.250 C 161.001 137.199, 160.859 137, 158 137 L 155 137 155 166.063 L 155 195.127 158.250 194.813 L 161.500 194.500 162 173.803 L 162.500 153.106 166 149.468 C 167.925 147.467, 170.715 145.193, 172.200 144.415 C 175.388 142.745, 182.723 142.564, 186.655 144.059 C 188.951 144.932, 189.665 144.811, 190.720 143.368 C 192.751 140.591, 192.239 139.231, 188.750 138.128 C 183.723 136.539, 178.890 136.124, 174.380 136.895 M 255 136.930 C 247.397 138.450, 240.263 144.152, 236.383 151.811 C 233.877 156.755, 233.500 158.612, 233.502 166 C 233.504 173.711, 233.809 175.062, 236.791 180.562 C 242.654 191.374, 255.701 197.541, 267.640 195.144 C 275.053 193.655, 282.276 190.365, 285.484 187.017 L 288.203 184.179 285.576 182.458 C 283.189 180.894, 282.791 180.879, 281.221 182.300 C 280.271 183.160, 277.020 185.015, 273.997 186.422 C 261.737 192.128, 248.129 187.919, 242.533 176.691 C 241.140 173.895, 240 171.021, 240 170.304 C 240 169.266, 245.195 169, 265.433 169 C 294.745 169, 292.933 169.724, 290.980 158.797 C 287.886 141.485, 274.105 133.110, 255 136.930 M 255.704 143.413 C 253.066 144.129, 249.522 146.016, 247.827 147.607 C 244.873 150.382, 240.030 159.143, 240.010 161.750 C 240.002 162.713, 245.161 163, 262.500 163 C 287.567 163, 286.095 163.480, 284.014 155.991 C 281.256 146.065, 267.864 140.115, 255.704 143.413 M 108.500 144.569 C 100.470 148.737, 95.638 156.859, 95.752 166 C 95.876 175.973, 100.164 182.812, 108.763 186.749 C 121.413 192.541, 136.442 186.145, 139.896 173.500 C 141.278 168.443, 141.289 162.582, 139.928 157.679 C 138.635 153.024, 132.655 146.178, 128.282 144.347 C 123.850 142.492, 112.252 142.622, 108.500 144.569" stroke="none" fill="#ffffff" fill-rule="evenodd"/></svg>