<svg xmlns="http://www.w3.org/2000/svg" width="304" height="352" viewBox="0 0 304 352" version="1.1"><path d="M 183 15.178 C 169.525 18.468, 157.922 21.717, 157.216 22.399 C 156.511 23.081, 152.332 36.657, 147.931 52.569 C 139.263 83.908, 138.395 85.729, 132.673 84.585 C 131.077 84.265, 115.986 78.222, 99.136 71.155 C 77.820 62.215, 68.120 58.601, 67.250 59.275 C 66.298 60.014, 66 67.560, 66 90.900 C 66 116.500, 65.753 121.907, 64.503 123.692 C 63.680 124.867, 52.846 133.119, 40.428 142.030 C 28.009 150.941, 17.630 158.800, 17.364 159.494 C 16.838 160.865, 30.400 220.106, 31.822 222.646 C 32.298 223.498, 41.380 231.013, 52.004 239.347 C 62.627 247.681, 72.255 255.764, 73.399 257.310 L 75.480 260.120 70.726 283.261 C 66.900 301.889, 66.219 306.645, 67.236 307.650 C 67.931 308.337, 82.450 315.615, 99.500 323.823 C 124.745 335.978, 130.750 338.515, 131.848 337.490 C 132.589 336.799, 136.718 322.843, 141.023 306.477 C 145.327 290.112, 149.446 276.156, 150.175 275.464 C 150.904 274.772, 161.775 266.735, 174.333 257.603 L 197.167 241 226.002 241 C 254.179 241, 258 240.745, 258 238.867 C 258 238.362, 252.375 228.323, 245.500 216.559 C 232.301 193.974, 230.632 189.338, 234.881 187.064 C 235.915 186.510, 245.702 183.554, 256.631 180.495 C 267.559 177.436, 278.389 174.245, 280.698 173.403 C 285.768 171.557, 285.301 174.020, 287.789 136.024 L 289.588 108.547 284.044 100.478 C 267.105 75.821, 254.359 58.034, 253.321 57.605 C 252.673 57.337, 242.177 60.541, 229.996 64.725 C 204.820 73.374, 202.756 73.527, 202.193 66.783 C 202.024 64.759, 203.981 51.596, 206.542 37.533 C 209.104 23.469, 210.944 11.296, 210.631 10.481 C 210.319 9.667, 209.486 9.044, 208.781 9.098 C 208.077 9.152, 196.475 11.888, 183 15.178 M 183.217 19.686 C 171.092 22.645, 168.685 23.552, 167.286 25.687 C 166.010 27.633, 165.867 28.801, 166.650 30.851 C 167.721 33.655, 183.788 56.933, 187.286 60.750 C 189.912 63.615, 195.483 63.835, 196.929 61.132 C 197.479 60.104, 199.536 50.655, 201.501 40.134 C 205.175 20.455, 205.169 18.046, 201.446 16.618 C 199.240 15.771, 199.308 15.760, 183.217 19.686 M 157.240 38.210 C 155.634 40.145, 146 75.560, 146 79.528 C 146 83.208, 148.026 85, 152.184 84.999 C 153.458 84.999, 161.676 83.465, 170.448 81.590 C 186.535 78.150, 189 77.006, 189 72.980 C 189 71.171, 187.184 68.342, 174.247 50 C 166.036 38.358, 165.187 37.479, 161.880 37.199 C 159.829 37.026, 157.869 37.453, 157.240 38.210 M 224.143 71.365 C 208.787 76.572, 206 78.261, 206 82.364 C 206 83.573, 211.532 89.924, 220.205 98.673 C 232.797 111.373, 234.787 113, 237.727 113 C 240.218 113, 241.279 112.440, 241.990 110.750 C 243.032 108.277, 248 76.727, 248 72.586 C 248 69.369, 244.740 65.974, 241.750 66.079 C 240.512 66.122, 232.589 68.501, 224.143 71.365 M 73 69 C 71.127 70.873, 71 72.333, 71 92.066 C 71 104.675, 71.416 113.908, 72.035 115.066 C 74.040 118.812, 78.766 117.466, 100.615 106.924 C 112.102 101.382, 122.287 96.137, 123.250 95.269 C 125.275 93.442, 125.595 87.698, 123.750 86.294 C 121.683 84.721, 78.415 67, 76.642 67 C 75.739 67, 74.100 67.900, 73 69 M 253.054 76.899 C 252.461 78.006, 250.810 86.412, 249.384 95.579 C 246.551 113.787, 246.800 116.410, 251.467 117.581 C 254.768 118.410, 274.656 111.410, 277.750 108.330 C 281.708 104.391, 281.294 103.453, 266.366 82.500 C 261.937 76.283, 260.974 75.466, 257.755 75.194 C 254.953 74.957, 253.886 75.344, 253.054 76.899 M 168.040 86.521 C 152.183 89.938, 150 91.009, 150 95.371 C 150 97.550, 180.149 128.595, 183.208 129.566 C 185.683 130.351, 188.818 129.209, 189.939 127.114 C 190.454 126.151, 191.360 118.644, 191.951 110.432 C 192.543 102.219, 193.269 93.611, 193.567 91.303 C 193.999 87.941, 193.698 86.698, 192.053 85.053 C 189.340 82.340, 186.686 82.502, 168.040 86.521 M 198.970 93.056 C 197.335 96.111, 194.810 130.777, 196.054 133.101 C 198.084 136.895, 201.759 136.613, 216.500 131.535 C 224.200 128.882, 231.063 126.271, 231.750 125.733 C 232.438 125.195, 232.987 123.348, 232.972 121.628 C 232.948 118.971, 230.905 116.427, 219.422 104.750 C 208.182 93.321, 205.408 91, 202.985 91 C 201.067 91, 199.694 91.703, 198.970 93.056 M 107.524 108.012 C 96.033 113.519, 85.792 118.783, 84.767 119.711 C 83.469 120.886, 82.994 122.475, 83.201 124.949 L 83.500 128.500 106.500 137.741 C 119.150 142.824, 130.287 146.987, 131.250 146.991 C 132.213 146.996, 133.900 146.100, 135 145 C 136.870 143.130, 137 141.667, 137 122.500 C 137 103.333, 136.870 101.870, 135 100 C 133.900 98.900, 131.969 98, 130.709 98 C 129.449 98, 119.016 102.505, 107.524 108.012 M 144 106 C 142.144 107.856, 142 109.333, 142 126.500 C 142 143.667, 142.144 145.144, 144 147 C 145.100 148.100, 146.829 149, 147.842 149 C 151.332 149, 178.402 142.911, 179.700 141.834 C 180.415 141.241, 181 139.329, 181 137.586 C 181 134.826, 179.019 132.450, 165.677 119.208 C 149.633 103.284, 147.821 102.179, 144 106 M 264.500 119.066 C 258.450 121.246, 252.910 123.811, 252.188 124.765 C 249.705 128.049, 251.785 131.920, 262.561 144.069 C 272.156 154.886, 273.461 156, 276.537 156 C 278.746 156, 280.255 155.389, 280.863 154.250 C 281.690 152.699, 284 128.727, 284 121.693 C 284 118.394, 280.790 114.982, 277.750 115.051 C 276.512 115.078, 270.550 116.885, 264.500 119.066 M 75 134 C 73.900 135.100, 73.005 137.012, 73.012 138.250 C 73.033 142.483, 78.839 174.830, 79.949 176.905 C 82.365 181.419, 85.055 180.733, 103.255 170.957 C 125.696 158.904, 126 158.683, 126 154.455 C 126 152.009, 125.365 150.644, 123.750 149.622 C 120.605 147.631, 80.558 132, 78.602 132 C 77.721 132, 76.100 132.900, 75 134 M 215.047 136.610 C 208.197 139.076, 202.010 141.577, 201.297 142.169 C 198.488 144.500, 199.863 149.138, 205.666 156.911 C 217.062 172.175, 218.866 174, 222.558 174 C 226.861 174, 227.093 173.542, 232.015 155.322 C 236.545 138.549, 236.913 134.559, 234.066 133.035 C 230.940 131.362, 228.193 131.879, 215.047 136.610 M 47.345 142.154 C 40.280 147.188, 33.488 152.217, 32.250 153.328 C 29.711 155.608, 29.179 161.074, 31.323 162.853 C 32.993 164.239, 59.423 176.324, 64.315 177.939 C 68.543 179.334, 71.580 178.654, 73.004 175.993 C 74.004 174.124, 70.388 147.324, 67.980 138.766 C 66.955 135.124, 64.628 133, 61.661 133 C 60.852 133, 54.409 137.119, 47.345 142.154 M 242.208 137.250 C 240.724 139.040, 232 172.021, 232 175.843 C 232 178.299, 232.590 179.312, 234.538 180.199 C 236.691 181.180, 239.659 180.624, 254.115 176.526 C 268.096 172.563, 271.438 171.261, 272.742 169.270 C 275.072 165.715, 273.971 163.802, 261.104 149.058 C 250.894 137.359, 249.372 136, 246.477 136 C 244.699 136, 242.778 136.563, 242.208 137.250 M 163.118 150.587 C 156.857 151.900, 151.120 153.485, 150.368 154.110 C 149.615 154.734, 149 156.787, 149 158.671 C 149 161.388, 150.558 164.153, 156.537 172.048 C 163.412 181.127, 164.363 182, 167.382 182 C 169.282 182, 171.342 181.255, 172.223 180.250 C 174.150 178.049, 184 155.763, 184 153.603 C 184 151.046, 180.253 147.991, 177.250 148.100 C 175.738 148.155, 169.378 149.274, 163.118 150.587 M 189.249 154.250 C 187.627 156.286, 178.035 178.575, 177.388 181.812 C 176.709 185.207, 179.620 189, 182.905 189 C 188.081 189, 212.440 185.835, 214.100 184.946 C 217.929 182.897, 216.526 178.382, 208.863 168.088 C 198.770 154.530, 197.205 153, 193.435 153 C 191.681 153, 189.797 153.563, 189.249 154.250 M 120.485 166.105 C 105.158 174.202, 90.226 182.528, 88.750 183.801 C 87.757 184.657, 87 186.705, 87 188.535 C 87 191.386, 88.467 193.108, 99.647 203.380 C 110.334 213.199, 112.794 215, 115.524 215 C 117.301 215, 119.212 214.438, 119.770 213.750 C 121.340 211.818, 132 173.160, 132 169.402 C 132 163.836, 127.318 162.496, 120.485 166.105 M 139.233 167.767 C 138.233 168.767, 135.152 177.817, 132.128 188.636 C 126.122 210.127, 126.149 212, 132.469 212 C 134.985 212, 138.938 210.047, 147.684 204.483 C 160.465 196.352, 163 194.031, 163 190.461 C 163 187.835, 149.203 168.714, 146.117 167.063 C 143.271 165.540, 141.254 165.746, 139.233 167.767 M 25.794 171.554 C 24.821 173.688, 25.313 177.073, 28.795 192.177 C 31.085 202.115, 33.474 210.866, 34.102 211.623 C 36.835 214.916, 41.182 213.208, 52.500 204.394 C 58.550 199.683, 64.513 194.889, 65.750 193.740 C 68.264 191.407, 68.820 185.925, 66.720 184.183 C 66.016 183.599, 58.359 179.943, 49.705 176.060 C 32.098 168.160, 27.716 167.335, 25.794 171.554 M 196.500 192.100 C 182.527 193.791, 180.824 194.176, 178.928 196.072 C 177.868 197.132, 177 198.812, 177 199.804 C 177 201.835, 188.151 221.286, 191.302 224.750 C 192.598 226.174, 194.505 227, 196.500 227 C 200.614 227, 202.284 225.038, 209.842 211.327 C 220.514 191.964, 218.741 189.408, 196.500 192.100 M 66.424 199.285 C 61.717 202.039, 42.920 217.281, 41.915 219.159 C 39.895 222.933, 41.801 225.804, 51.397 233.444 C 68.206 246.825, 70.230 247.770, 74 244 C 75.867 242.133, 76 240.667, 76 222 C 76 203.333, 75.867 201.867, 74 200 C 71.734 197.734, 69.445 197.518, 66.424 199.285 M 221.623 200.250 C 218.727 202.870, 206.100 225.248, 205.321 229.144 C 204.949 231.004, 205.418 232.418, 206.896 233.896 C 208.870 235.870, 210.052 236, 226.066 236 C 235.917 236, 243.949 235.562, 245.066 234.965 C 248.864 232.932, 247.572 227.878, 239.883 214.699 C 232.444 201.948, 229.162 198, 226 198 C 224.961 198, 222.992 199.012, 221.623 200.250 M 161.812 200.415 C 158.141 202.330, 139.915 214.010, 137.750 215.835 C 135.654 217.602, 135.420 223.274, 137.377 224.898 C 138.134 225.526, 148.039 227.691, 159.389 229.709 C 182.934 233.894, 185.279 233.755, 185.821 228.135 C 186.077 225.474, 184.715 222.421, 179.033 212.918 C 170.492 198.635, 168.289 197.035, 161.812 200.415 M 82.035 201.934 C 81.425 203.074, 81 211.725, 81 223 C 81 234.275, 81.425 242.926, 82.035 244.066 C 82.738 245.379, 84.103 245.987, 86.285 245.960 C 88.799 245.929, 91.954 243.965, 100.750 236.956 C 116.001 224.805, 116.001 224.929, 100.759 210.582 C 91.273 201.653, 89.014 200, 86.294 200 C 84.130 200, 82.730 200.636, 82.035 201.934 M 130.896 232.104 C 127.975 235.025, 128.657 237.412, 136.606 252.091 C 144.828 267.274, 145.425 268, 149.678 268 C 152.377 268, 155.925 265.899, 167.523 257.432 C 181.114 247.511, 182 246.661, 182 243.554 C 182 241.734, 181.310 239.672, 180.466 238.972 C 179.118 237.853, 139.309 230.053, 134.750 230.015 C 133.787 230.007, 132.053 230.947, 130.896 232.104 M 102.250 241.110 C 92.014 249.337, 91 250.449, 91 253.453 C 91 255.269, 91.576 257.234, 92.281 257.818 C 93.730 259.020, 127.144 268, 130.169 268 C 131.248 268, 133.002 267.534, 134.066 266.965 C 137.813 264.959, 136.466 259.591, 128.682 245.500 L 121.500 232.500 117.500 232.284 C 113.830 232.086, 112.571 232.815, 102.250 241.110 M 80.065 263.878 C 78.554 266.702, 74 288.601, 74 293.045 C 74 297.049, 75.830 299, 79.584 299 C 81.615 299, 123.897 282.330, 125.735 280.805 C 126.431 280.227, 127 278.226, 127 276.356 C 127 272.123, 127.249 272.236, 105.256 266.499 C 86.038 261.485, 81.593 261.023, 80.065 263.878 M 109.500 292.157 C 96.850 297.177, 85.691 301.985, 84.701 302.841 C 83.460 303.916, 82.995 305.497, 83.201 307.949 L 83.500 311.500 102.500 320.821 C 112.950 325.947, 122.642 330.372, 124.037 330.653 C 129.100 331.674, 130.551 328.951, 135.966 308.267 C 138.735 297.688, 141 288.576, 141 288.017 C 141 286.170, 137.040 283, 134.750 283.014 C 133.512 283.022, 122.150 287.136, 109.500 292.157" stroke="none" fill="#00dc84" fill-rule="evenodd"/></svg>